<?xml version="1.0" standalone="no"?>
<!DOCTYPE svg PUBLIC "-//W3C//DTD SVG 20010904//EN"
 "http://www.w3.org/TR/2001/REC-SVG-20010904/DTD/svg10.dtd">
<svg version="1.0" xmlns="http://www.w3.org/2000/svg"
 width="225.000000pt" height="225.000000pt" viewBox="0 0 225.000000 225.000000"
 preserveAspectRatio="xMidYMid meet">

<g transform="translate(0.000000,225.000000) scale(0.100000,-0.100000)"
fill="#000000" stroke="none">
<path d="M0 1125 l0 -1125 1125 0 1125 0 0 1125 0 1125 -1125 0 -1125 0 0
-1125z m1518 620 c28 -9 72 -32 98 -52 l48 -36 55 18 c31 10 73 26 94 37 22
11 41 18 43 16 10 -10 -42 -91 -82 -128 l-45 -41 38 7 c21 4 59 15 86 24 26
10 47 14 47 9 0 -6 -33 -43 -74 -84 l-73 -73 -7 -84 c-14 -169 -78 -355 -165
-481 -227 -331 -644 -466 -1036 -336 -71 24 -195 83 -195 92 0 1 37 2 83 3 45
0 107 6 137 13 66 16 185 70 220 99 l25 21 -26 1 c-40 0 -107 27 -153 60 -38
28 -116 130 -116 151 0 5 30 9 67 9 l66 0 -61 30 c-99 50 -167 142 -179 241
-3 27 -3 49 -1 49 3 0 21 -6 39 -14 19 -7 48 -16 66 -19 l32 -6 -42 42 c-65
64 -91 127 -92 217 0 50 6 91 18 122 l19 48 62 -63 c141 -144 345 -244 537
-264 l62 -6 -7 35 c-3 19 -2 59 4 88 37 195 221 310 408 255z"/>
</g>
</svg>
