<?xml version="1.0" standalone="no"?>
<!DOCTYPE svg PUBLIC "-//W3C//DTD SVG 20010904//EN"
 "http://www.w3.org/TR/2001/REC-SVG-20010904/DTD/svg10.dtd">
<svg version="1.0" xmlns="http://www.w3.org/2000/svg"
 width="225.000000pt" height="225.000000pt" viewBox="0 0 225.000000 225.000000"
 preserveAspectRatio="xMidYMid meet">

<g transform="translate(0.000000,225.000000) scale(0.100000,-0.100000)"
fill="white" stroke="none">
<path d="M0 1827 l0 -82 559 -419 c307 -231 562 -419 566 -419 4 0 259 188
566 419 l559 419 0 82 0 83 -1125 0 -1125 0 0 -83z"/>
<path d="M0 1120 l0 -412 29 19 c362 234 551 359 551 364 0 4 -116 93 -257
199 -142 107 -273 204 -290 218 l-33 24 0 -412z"/>
<path d="M1960 1315 c-156 -117 -286 -217 -287 -222 -2 -4 127 -92 285 -195
l287 -187 3 205 c1 112 1 296 0 408 l-3 205 -285 -214z"/>
<path d="M363 742 l-363 -237 0 -82 0 -83 1125 0 1125 0 0 83 0 82 -362 235
c-199 129 -367 234 -374 234 -6 -1 -91 -62 -190 -136 -98 -74 -184 -137 -190
-141 -6 -3 -98 59 -204 138 -107 80 -196 145 -199 144 -3 0 -169 -107 -368
-237z"/>
</g>
</svg>
