<?xml version="1.0" standalone="no"?>
<!DOCTYPE svg PUBLIC "-//W3C//DTD SVG 20010904//EN"
 "http://www.w3.org/TR/2001/REC-SVG-20010904/DTD/svg10.dtd">
<svg version="1.0" xmlns="http://www.w3.org/2000/svg"
 width="225.000000pt" height="225.000000pt" viewBox="0 0 225.000000 225.000000"
 preserveAspectRatio="xMidYMid meet">

<g transform="translate(0.000000,225.000000) scale(0.100000,-0.100000)"
fill="white" stroke="none">
<path d="M1416 2079 c-213 -73 -349 -277 -333 -500 l5 -79 -32 0 c-64 0 -223
32 -322 65 -202 67 -374 169 -529 315 -46 44 -92 80 -102 80 -31 0 -62 -29
-72 -68 -44 -174 9 -374 131 -488 27 -25 48 -48 46 -50 -2 -2 -31 3 -63 11
-82 20 -92 19 -121 -11 -22 -21 -25 -31 -19 -62 26 -141 172 -297 328 -350 49
-16 54 -20 35 -26 -13 -3 -37 -6 -54 -6 -52 0 -93 -20 -100 -47 -5 -18 3 -38
32 -80 69 -100 181 -173 308 -199 39 -9 72 -17 74 -19 7 -7 -110 -77 -192
-116 -103 -48 -217 -78 -329 -86 -86 -6 -117 -19 -101 -44 23 -38 271 -126
433 -154 173 -31 449 -15 626 34 555 155 963 686 992 1290 l6 125 94 89 c51
49 93 95 93 102 0 30 -25 34 -100 14 -114 -30 -120 -26 -57 31 31 28 69 72 86
97 58 87 38 97 -91 50 -143 -53 -154 -55 -191 -19 -46 43 -107 78 -176 102
-83 28 -223 27 -305 -1z"/>
</g>
</svg>
